<?xml version="1.0" ?><svg id="Layer_1" style="enable-background:new 0 0 128 128;" version="1.1" viewBox="0 0 128 128" xml:space="preserve" xmlns="http://www.w3.org/2000/svg" xmlns:xlink="http://www.w3.org/1999/xlink"><style type="text/css">
	.st0{fill:#191919;}
	.st1{fill:#5F5F5F;}
	.st2{fill:#D7E7F1;}
	.st3{fill:#DB2626;}
	.st4{fill:#FFFFFF;}
	.st5{fill:#BF1313;}
	.st6{fill:#330C03;}
	.st7{fill:#C64309;}
	.st8{fill:#912200;}
	.st9{fill:#1D1D26;}
	.st10{fill:#FD01FD;}
	.st11{fill:#9900CC;}
	.st12{fill:#9494F5;}
	.st13{fill:#E25F3B;}
	.st14{fill:#CC4627;}
	.st15{fill:#69D240;}
	.st16{fill:#565656;}
	.st17{fill:#F2D313;}
	.st18{fill:#D7E6F0;}
	.st19{fill:#666666;}
	.st20{fill:#7B7B7B;}
	.st21{fill:#262C3A;}
	.st22{fill:#A46637;}
	.st23{fill:#7F340A;}
	.st24{fill:#62C60A;}
	.st25{fill:#54A307;}
	.st26{fill:#E01931;}
</style><g><g><g><line class="st4" x1="74.8" x2="80.5" y1="20.8" y2="12"/></g><g><path d="M74.8,21.7c-0.2,0-0.3,0-0.5-0.1c-0.4-0.3-0.5-0.8-0.3-1.2l5.7-8.8c0.3-0.4,0.8-0.5,1.2-0.3c0.4,0.3,0.5,0.8,0.3,1.2     l-5.7,8.8C75.4,21.6,75.1,21.7,74.8,21.7z"/></g></g><g><g><line class="st4" x1="54.5" x2="48.8" y1="20.8" y2="12"/></g><g><path d="M54.5,21.7c-0.3,0-0.6-0.1-0.7-0.4l-5.7-8.8c-0.3-0.4-0.1-0.9,0.3-1.2c0.4-0.3,0.9-0.1,1.2,0.3l5.7,8.8     c0.3,0.4,0.1,0.9-0.3,1.2C54.8,21.7,54.6,21.7,54.5,21.7z"/></g></g></g><g><g><path d="M25.5,69H13.3c-0.5,0-0.9-0.5-0.9-1s0.4-1,0.9-1h12.2c0.5,0,0.9,0.5,0.9,1S26,69,25.5,69z"/></g><g><path d="M36.3,41.1c-0.2,0-0.4-0.1-0.6-0.3l-8-8c-0.3-0.3-0.3-0.9,0-1.2c0.3-0.3,0.9-0.3,1.2,0l8,8c0.3,0.3,0.3,0.9,0,1.2    C36.8,41,36.6,41.1,36.3,41.1z"/></g><g><path d="M92.9,41.1c-0.2,0-0.4-0.1-0.6-0.3c-0.3-0.3-0.3-0.9,0-1.2l8-8c0.3-0.3,0.9-0.3,1.2,0c0.3,0.3,0.3,0.9,0,1.2l-8,8    C93.4,41,93.1,41.1,92.9,41.1z"/></g><g><path d="M116,69h-12.2c-0.5,0-0.9-0.5-0.9-1s0.4-1,0.9-1H116c0.5,0,0.9,0.5,0.9,1S116.5,69,116,69z"/></g><g><path d="M28.3,105.7c-0.2,0-0.4-0.1-0.6-0.3c-0.3-0.3-0.3-0.9,0-1.2l8-8c0.3-0.3,0.9-0.3,1.2,0c0.3,0.3,0.3,0.9,0,1.2l-8,8    C28.7,105.6,28.5,105.7,28.3,105.7z"/></g><g><path d="M100.9,105.7c-0.2,0-0.4-0.1-0.6-0.3l-8-8c-0.3-0.3-0.3-0.9,0-1.2c0.3-0.3,0.9-0.3,1.2,0l8,8c0.3,0.3,0.3,0.9,0,1.2    C101.4,105.6,101.2,105.7,100.9,105.7z"/></g></g><path d="M42,30.4c2.7-10.6,11.8-18.3,22.6-18.3c10.8,0,20,7.8,22.7,18.5"/><path class="st3" d="M109.1,70.1c0,25.7-19.2,46.6-43.1,47.3c-0.5,0-0.9,0-1.4,0c-0.2,0-0.4,0-0.6,0C39.8,117.1,20.2,96,20.2,70.1  c0-25.9,19.6-47,43.8-47.4c0.2,0,0.4,0,0.6,0c0.5,0,0.9,0,1.4,0C89.9,23.5,109.1,44.4,109.1,70.1z"/><g><g><path class="st5" d="M64,22.7v94.7c0.2,0,0.4,0,0.6,0c0.5,0,0.9,0,1.4,0V22.7L64,22.7z"/></g></g><g><circle cx="47.2" cy="51.3" r="9.3"/><circle cx="42.8" cy="86.1" r="7.5"/><circle cx="82.1" cy="51.3" r="9.3"/><circle cx="86.5" cy="86.1" r="7.5"/></g></svg>